<?xml version="1.0" encoding="UTF-8" standalone="no"?>
<svg width="44px" height="44px" viewBox="0 0 44 44" version="1.1" xmlns="http://www.w3.org/2000/svg" xmlns:xlink="http://www.w3.org/1999/xlink">
    <!-- Generator: Sketch 39 (31667) - http://www.bohemiancoding.com/sketch -->
    <title>地址</title>
    <desc>Created with Sketch.</desc>
    <defs></defs>
    <g id="Symbols" stroke="none" stroke-width="1" fill="none" fill-rule="evenodd">
        <g id="地址" fill="#CCCCCC">
            <path d="M21.6412218,44 L21.6087286,44 C20.8427184,44 20.1017694,43.6829843 19.5757711,43.1301181 C19.1603881,42.6959531 15.3869121,38.7193746 11.6349255,33.6829921 C6.56874975,26.8826457 4,21.4611308 4,17.5691664 C4,7.88153389 11.8992497,0 21.6087286,0 C31.3180346,0 39.2171691,7.88147641 39.2171691,17.5691089 C39.2171691,19.9239925 38.3094908,22.8075422 36.519253,26.139685 C34.7929647,29.3526091 32.1966188,33.0852321 28.8021727,37.2337981 L28.7740004,37.2671379 L23.7215363,43.0420549 C23.1860897,43.6515989 22.4284908,44 21.6412218,44 L21.6412218,44 Z M21.6087286,25.7934682 C17.0635965,25.7934682 13.365938,22.104072 13.365938,17.5691664 C13.365938,13.0343183 17.0635965,9.34486466 21.6087286,9.34486466 C26.1538607,9.34486466 29.8515767,13.0342608 29.8515767,17.5691664 C29.8515767,22.104072 26.1538607,25.7934682 21.6087286,25.7934682 L21.6087286,25.7934682 Z" id="iconfont-location"></path>
        </g>
    </g>
</svg>